HIERARCHY
ROOT Hips
{
	OFFSET 0.00000 0.00000 0.00000
	CHANNELS 6 Xposition Yposition Zposition Zrotation Yrotation Xrotation 
	JOINT LHipJoint
	{
		OFFSET 0 0 0
		CHANNELS 3 Zrotation Yrotation Xrotation
		JOINT LeftUpLeg
		{
			OFFSET 1.58161 -1.81893 0.78828
			CHANNELS 3 Zrotation Yrotation Xrotation
			JOINT LeftLeg
			{
				OFFSET 2.53374 -6.96141 0.00000
				CHANNELS 3 Zrotation Yrotation Xrotation
				JOINT LeftFoot
				{
					OFFSET 2.63509 -7.23986 0.00000
					CHANNELS 3 Zrotation Yrotation Xrotation
					JOINT LeftToeBase
					{
						OFFSET 0.14115 -0.38781 2.05350
						CHANNELS 3 Zrotation Yrotation Xrotation
						End Site
						{
							OFFSET 0.00000 -0.00000 1.05543
						}
					}
				}
			}
		}
	}
	JOINT RHipJoint
	{
		OFFSET 0 0 0
		CHANNELS 3 Zrotation Yrotation Xrotation
		JOINT RightUpLeg
		{
			OFFSET -1.11138 -1.81893 0.78828
			CHANNELS 3 Zrotation Yrotation Xrotation
			JOINT RightLeg
			{
				OFFSET -2.58392 -7.09926 0.00000
				CHANNELS 3 Zrotation Yrotation Xrotation
				JOINT RightFoot
				{
					OFFSET -2.66423 -7.31992 0.00000
					CHANNELS 3 Zrotation Yrotation Xrotation
					JOINT RightToeBase
					{
						OFFSET -0.18831 -0.51739 2.12114
						CHANNELS 3 Zrotation Yrotation Xrotation
						End Site
						{
							OFFSET -0.00000 -0.00000 1.09845
						}
					}
				}
			}
		}
	}
	JOINT LowerBack
	{
		OFFSET 0 0 0
		CHANNELS 3 Zrotation Yrotation Xrotation
		JOINT Spine
		{
			OFFSET -0.01511 1.97958 -0.08829
			CHANNELS 3 Zrotation Yrotation Xrotation
			JOINT Spine1
			{
				OFFSET 0.08344 1.97334 -0.04330
				CHANNELS 3 Zrotation Yrotation Xrotation
				JOINT Neck
				{
					OFFSET 0 0 0
					CHANNELS 3 Zrotation Yrotation Xrotation
					JOINT Neck1
					{
						OFFSET 0.00559 1.76246 0.31246
						CHANNELS 3 Zrotation Yrotation Xrotation
						JOINT Head
						{
							OFFSET -0.07011 1.80354 -0.30524
							CHANNELS 3 Zrotation Yrotation Xrotation
							End Site
							{
								OFFSET -0.02385 1.83547 -0.13906
							}
						}
					}
				}
				JOINT LeftShoulder
				{
					OFFSET 0 0 0
					CHANNELS 3 Zrotation Yrotation Xrotation
					JOINT LeftArm
					{
						OFFSET 3.20667 1.30156 -0.60240
						CHANNELS 3 Zrotation Yrotation Xrotation
						JOINT LeftForeArm
						{
							OFFSET 4.95663 -0.00000 0.00000
							CHANNELS 3 Zrotation Yrotation Xrotation
							JOINT LeftHand
							{
								OFFSET 3.38177 -0.00000 0.00000
								CHANNELS 3 Zrotation Yrotation Xrotation
								JOINT LeftFingerBase
								{
									OFFSET 0 0 0
									CHANNELS 3 Zrotation Yrotation Xrotation
									JOINT LeftHandIndex1
									{
										OFFSET 0.66291 -0.00000 0.00000
										CHANNELS 3 Zrotation Yrotation Xrotation
										End Site
										{
											OFFSET 0.53445 -0.00000 0.00000
										}
									}
								}
								JOINT LThumb
								{
									OFFSET 0 0 0
									CHANNELS 3 Zrotation Yrotation Xrotation
									End Site
									{
										OFFSET 0.54261 -0.00000 0.54261
									}
								}
							}
						}
					}
				}
				JOINT RightShoulder
				{
					OFFSET 0 0 0
					CHANNELS 3 Zrotation Yrotation Xrotation
					JOINT RightArm
					{
						OFFSET -3.06877 1.34672 -0.60964
						CHANNELS 3 Zrotation Yrotation Xrotation
						JOINT RightForeArm
						{
							OFFSET -5.08365 -0.00000 0.00000
							CHANNELS 3 Zrotation Yrotation Xrotation
							JOINT RightHand
							{
								OFFSET -3.35984 -0.00000 0.00000
								CHANNELS 3 Zrotation Yrotation Xrotation
								JOINT RightFingerBase
								{
									OFFSET 0 0 0
									CHANNELS 3 Zrotation Yrotation Xrotation
									JOINT RightHandIndex1
									{
										OFFSET -0.82076 -0.00000 0.00000
										CHANNELS 3 Zrotation Yrotation Xrotation
										End Site
										{
											OFFSET -0.66172 -0.00000 0.00000
										}
									}
								}
								JOINT RThumb
								{
									OFFSET 0 0 0
									CHANNELS 3 Zrotation Yrotation Xrotation
									End Site
									{
										OFFSET -0.67182 -0.00000 0.67182
									}
								}
							}
						}
					}
				}
			}
		}
	}
}
MOTION
Frames: 7
Frame Time: .0083333
-5.7720 17.8178 3.7885 -13.1897 41.6469 0.3987 0.0000 0.0000 0.0000 3.0275 19.1020 -15.0691 3.8116 11.9054 35.3981 -0.4805 12.6819 -8.4985 3.7176 -11.7748 -34.9399 0.0000 0.0000 0.0000 24.4472 26.3631 -22.1486 -2.5615 -9.9490 28.8116 1.6252 22.4411 3.0989 -1.8951 -8.6441 24.6882 -15.1178 -8.4430 4.5316 -2.7838 -11.7735 1.2307 5.4423 -5.9209 1.2055 3.0733 20.2730 -6.3105 -14.4273 29.9991 14.2136 -1.8562 13.4273 8.1614 0.0000 -0.0000 0.0000 -176.7711 -51.3635 170.0810 18.5847 -28.8993 -4.8285 -0.0000 -0.0000 7.6273 25.6759 0.8290 0.3985 -7.1250 0.0000 -0.0000 1.1869 -59.0998 179.5910 0.0000 -0.0000 0.0000 62.0479 43.8666 2.3317 -117.1524 57.0222 -83.2796 0.0000 -0.0000 -4.6528 -73.8086 22.3631 -52.6505 7.1250 -0.0000 -0.0000 -25.6202 21.5717 -36.0515
-5.7714 17.8263 3.8236 -13.1006 41.4156 0.5034 0.0000 0.0000 0.0000 3.1430 19.0872 -14.8913 3.8157 11.9111 35.4182 -0.4764 12.6197 -8.4236 3.4920 -11.4519 -33.8194 0.0000 0.0000 0.0000 24.5425 26.3948 -22.0809 -2.5662 -9.9572 28.8383 1.6527 22.5706 3.3445 -1.9813 -8.8271 25.2559 -15.1150 -8.4719 4.5180 -2.8149 -11.8236 1.1012 5.4185 -5.9304 1.0767 2.8681 20.3275 -6.1035 -14.3272 29.9800 13.8281 -1.8562 13.4633 7.9474 0.0000 0.0000 0.0000 -177.6612 -50.9750 170.5676 18.8773 -29.2660 -4.9707 -0.0000 -0.0000 7.8725 26.3208 0.4481 0.2217 -7.1250 0.0000 -0.0000 0.3304 -59.5198 179.8829 0.0000 0.0000 0.0000 60.1579 44.0154 1.0657 -117.8413 56.8583 -83.8570 0.0000 -0.0000 -3.9248 -74.2434 22.6676 -53.7909 7.1250 -0.0000 -0.0000 -25.8109 22.5603 -36.5615
-5.7710 17.8265 3.8554 -12.9942 41.1809 0.5632 0.0000 0.0000 0.0000 3.2524 19.1531 -14.6993 3.8108 11.9043 35.3942 -0.4908 12.6519 -7.8500 3.6307 -11.6520 -34.5117 0.0000 0.0000 0.0000 24.6241 26.4618 -21.9509 -2.5737 -9.9707 28.8819 1.6737 22.6564 3.5951 -2.1098 -9.0911 26.0806 -15.0178 -8.4361 4.5802 -2.9758 -11.7979 0.9665 5.2358 -5.8919 0.8378 2.9980 20.2995 -5.7809 -14.2785 29.8458 13.5258 -1.9244 13.4548 7.7897 0.0000 0.0000 0.0000 -178.3192 -50.4262 170.9951 19.1317 -29.5819 -5.0957 -0.0000 -0.0000 7.9007 26.8596 -0.1408 -0.0713 -7.1250 0.0000 -0.0000 -0.4038 -60.1777 -179.8505 0.0000 0.0000 0.0000 58.4967 43.8809 -0.2424 -118.6715 56.6537 -84.5513 0.0000 -0.0000 -3.1929 -74.6640 22.9774 -54.9108 7.1250 -0.0000 -0.0000 -25.9951 23.5349 -37.0472
-5.7719 17.8256 3.8882 -12.7804 40.9878 0.7295 0.0000 0.0000 0.0000 3.2383 19.1792 -14.5904 3.8061 11.8979 35.3716 -0.5211 12.8194 -6.8646 3.9986 -12.1586 -36.2954 0.0000 0.0000 0.0000 24.5878 26.6132 -21.8498 -2.5810 -9.9837 28.9240 1.6840 22.7012 3.7080 -2.1826 -9.2366 26.5382 -15.0135 -8.4513 4.6284 -3.1334 -11.8354 0.8721 5.0910 -5.8921 0.6820 2.9862 20.3213 -5.7339 -14.1815 29.7956 13.2538 -1.9231 13.4631 7.6679 -0.0000 0.0000 0.0000 -179.2068 -49.9708 171.8619 19.3279 -29.8241 -5.1929 -0.0000 -0.0000 7.6040 27.4271 -0.5317 -0.2759 -7.1250 0.0000 -0.0000 -1.1977 -60.6187 -179.5439 -0.0000 0.0000 0.0000 56.9215 43.8610 -1.5476 -119.5614 56.4257 -85.2937 0.0000 -0.0000 -2.3874 -74.6384 23.1106 -55.0108 7.1250 -0.0000 -0.0000 -25.9421 23.6720 -36.9829
-5.7733 17.8326 3.9241 -12.5370 40.8150 0.9583 0.0000 0.0000 0.0000 3.2076 19.2289 -14.4935 3.8089 11.9016 35.3848 -0.5123 12.7218 -6.8637 3.6630 -11.6980 -34.6717 0.0000 0.0000 0.0000 24.5152 26.7769 -21.7950 -2.5882 -9.9966 28.9658 1.6940 22.7478 3.8031 -2.2410 -9.3510 26.8997 -15.1367 -8.5049 4.5932 -3.2152 -11.9107 0.7990 5.0659 -5.9211 0.6448 2.7863 20.3954 -5.7924 -14.0500 29.8141 12.9117 -1.8790 13.4983 7.5144 0.0000 0.0000 0.0000 179.7377 -49.6488 173.0339 19.5440 -30.0890 -5.3008 -0.0000 -0.0000 7.3409 28.0898 -0.5497 -0.2934 -7.1250 0.0000 -0.0000 -2.1218 -60.6407 -179.1908 0.0000 0.0000 0.0000 55.2081 43.9144 -2.8744 -120.3095 56.2269 -85.9163 0.0000 -0.0000 -1.5891 -74.5024 22.9199 -54.5497 7.1250 -0.0000 -0.0000 -25.9072 23.2409 -36.8478
-5.7743 17.8419 3.9591 -12.2425 40.6219 1.2110 0.0000 0.0000 0.0000 3.1408 19.3229 -14.3947 3.8209 11.9183 35.4434 -0.4925 12.5261 -7.0465 3.2618 -11.1073 -32.6427 0.0000 0.0000 0.0000 24.4170 26.8518 -21.7401 -2.5915 -10.0023 28.9843 1.7159 22.8690 3.9082 -2.2599 -9.3876 27.0156 -15.3129 -8.5313 4.5602 -3.2884 -11.9541 0.7124 5.0791 -5.9332 0.5979 2.7295 20.4243 -5.6685 -14.1704 29.7782 12.4336 -1.9468 13.5154 7.3447 0.0000 0.0000 0.0000 178.7368 -49.2865 173.9748 19.7305 -30.3162 -5.3946 -0.0000 -0.0000 7.4416 28.6866 -0.6960 -0.3808 -7.1250 0.0000 -0.0000 -2.9684 -60.8085 -178.8558 0.0000 0.0000 0.0000 53.4429 43.9234 -4.2196 -120.9105 56.0624 -86.4154 0.0000 -0.0000 -0.7227 -74.8473 22.9248 -55.1918 7.1250 -0.0000 -0.0000 -26.1279 23.7174 -37.3015
-5.7753 17.8474 3.9912 -12.0766 40.4242 1.3910 0.0000 0.0000 0.0000 3.1337 19.4813 -14.4318 3.8386 11.9424 35.5286 -0.5095 12.6147 -6.2500 3.5902 -11.5941 -34.3109 0.0000 0.0000 0.0000 24.4103 26.9456 -21.6760 -2.5875 -9.9953 28.9616 1.7288 22.9357 3.9955 -2.2736 -9.4142 27.0996 -15.3603 -8.5002 4.5278 -3.3326 -11.9194 0.6192 5.0647 -5.9047 0.5087 2.6851 20.3920 -5.4731 -14.2904 29.6665 12.0106 -2.0316 13.4980 7.1771 -0.0000 0.0000 0.0000 177.8221 -48.7319 174.6556 19.8602 -30.4735 -5.4603 -0.0000 -0.0000 7.6844 29.2222 -1.0617 -0.5938 -7.1250 0.0000 -0.0000 -3.7638 -61.2285 -178.5112 -0.0000 0.0000 0.0000 51.6522 43.8296 -5.6897 -121.5364 55.8864 -86.9342 0.0000 0.0000 0.0943 -75.2878 23.5574 -56.6959 7.1250 -0.0000 -0.0000 -26.2412 25.1257 -37.7247
